<svg width="108" height="108" viewBox="0 0 108 108" fill="none" xmlns="http://www.w3.org/2000/svg">
<g clip-path="url(#clip0_1_1138)">
<path opacity="0.2" d="M108.352 0.355072L72.2161 36.1578C76.7211 40.7567 79.5001 47.0532 79.5002 53.9996C79.5002 60.8612 76.7884 67.0888 72.3801 71.6725L108.354 107.646L107.647 108.353L71.6731 72.3795C67.0895 76.788 60.8621 79.4995 54.0002 79.4996C46.969 79.4996 40.6025 76.6539 35.9895 72.0514L-0.648193 108.355L-1.35132 107.644L35.2961 71.3307C31.079 66.7815 28.5002 60.6919 28.5002 53.9996C28.5003 47.1378 31.2108 40.9094 35.6194 36.3258L-0.353271 0.353119L0.35376 -0.353912L36.3264 35.6187C40.9101 31.2105 47.1386 28.4996 54.0002 28.4996C60.7769 28.4997 66.9353 31.1446 71.5022 35.4566L107.649 -0.355865L108.352 0.355072ZM58.636 89.1998C57.1186 89.3977 55.5711 89.4996 54.0002 89.4996C52.4294 89.4996 50.8819 89.3977 49.3645 89.1998L49.4934 88.2076C50.9681 88.4 52.4726 88.4996 54.0002 88.4996C55.5278 88.4996 57.0324 88.4 58.5071 88.2076L58.636 89.1998ZM32.9973 81.3717C35.3714 83.1961 37.9898 84.7185 40.7942 85.8814L40.4114 86.8053C37.525 85.6084 34.8306 84.0417 32.3879 82.1646L32.9973 81.3717ZM75.6125 82.1646C73.17 84.0416 70.4753 85.6084 67.5891 86.8053L67.2063 85.8814C70.0106 84.7185 72.6292 83.196 75.0032 81.3717L75.6125 82.1646ZM36.7004 71.3473C41.1322 75.7669 47.2469 78.4996 54.0002 78.4996C60.586 78.4995 66.5635 75.9001 70.9661 71.6725L53.7493 54.4557L36.7004 71.3473ZM22.1184 67.2057C23.2814 70.01 24.8038 72.6285 26.6282 75.0025L25.8352 75.6119C23.9582 73.1693 22.3915 70.4748 21.1946 67.5885L22.1184 67.2057ZM86.8059 67.5885C85.6091 70.4747 84.0422 73.1693 82.1653 75.6119L81.3723 75.0025C83.1966 72.6285 84.7192 70.0099 85.8821 67.2057L86.8059 67.5885ZM54.4592 53.7516L71.6731 70.9654C75.9004 66.5629 78.5002 60.5851 78.5002 53.9996C78.5001 47.3276 75.8313 41.2801 71.5051 36.8619L54.4592 53.7516ZM36.3264 37.0328C32.0988 41.4353 29.5003 47.4139 29.5002 53.9996C29.5002 60.4175 31.9687 66.2585 36.0071 70.6266L53.0422 53.7486L36.3264 37.0328ZM19.7922 49.4928C19.5999 50.9674 19.5003 52.4721 19.5002 53.9996C19.5002 55.5271 19.5999 57.0318 19.7922 58.5064L18.8 58.6353C18.6022 57.118 18.5002 55.5704 18.5002 53.9996C18.5003 52.4288 18.6021 50.8812 18.8 49.3639L19.7922 49.4928ZM89.2004 49.3639C89.3983 50.8812 89.5002 52.4288 89.5002 53.9996C89.5002 55.5704 89.3983 57.118 89.2004 58.6353L88.2083 58.5064C88.4006 57.0318 88.5002 55.5271 88.5002 53.9996C88.5002 52.4721 88.4006 50.9674 88.2083 49.4928L89.2004 49.3639ZM54.0002 29.4996C47.4148 29.4996 41.436 32.0984 37.0334 36.3258L53.7522 53.0445L70.7913 36.1607C66.4059 32.0315 60.4991 29.4997 54.0002 29.4996ZM26.6282 32.9967C24.8039 35.3707 23.2814 37.9893 22.1184 40.7935L21.1946 40.4107C22.3915 37.5246 23.9582 34.8298 25.8352 32.3873L26.6282 32.9967ZM82.1653 32.3873C84.0423 34.8299 85.609 37.5245 86.8059 40.4107L85.8821 40.7935C84.7191 37.9892 83.1967 35.3707 81.3723 32.9967L82.1653 32.3873ZM40.7942 22.1178C37.9899 23.2807 35.3713 24.8032 32.9973 26.6275L32.3879 25.8346C34.8305 23.9576 37.5252 22.3908 40.4114 21.1939L40.7942 22.1178ZM67.5891 21.1939C70.4754 22.3908 73.1699 23.9575 75.6125 25.8346L75.0032 26.6275C72.6291 24.8031 70.0107 23.2807 67.2063 22.1178L67.5891 21.1939ZM54.0002 18.4996C55.5711 18.4996 57.1186 18.6015 58.636 18.7994L58.5071 19.7916C57.0324 19.5992 55.5278 19.4996 54.0002 19.4996C52.4727 19.4996 50.9681 19.5993 49.4934 19.7916L49.3645 18.7994C50.8818 18.6015 52.4294 18.4996 54.0002 18.4996Z" fill="white"/>
<g filter="url(#filter0_d_1_1138)">
<rect x="18" y="18" width="72" height="72" rx="25" fill="#F2EEDB"/>
<rect x="19.5" y="19.5" width="69" height="69" rx="23.5" stroke="black" stroke-width="3"/>
</g>
<g filter="url(#filter1_d_1_1138)">
<path d="M49.9748 44.436C50.4002 44.2427 51.0575 44.03 51.9468 43.798C52.8748 43.5273 53.8028 43.392 54.7308 43.392C56.3548 43.392 57.7082 43.6433 58.7908 44.146C59.8735 44.61 60.5308 45.306 60.7628 46.234C61.1882 47.8193 61.5748 49.308 61.9228 50.7C62.3095 52.0533 62.6768 53.368 63.0248 54.644C63.3728 55.8813 63.7015 57.1187 64.0108 58.356C64.3588 59.5933 64.6875 60.8887 64.9968 62.242H65.2868C65.6348 59.8833 65.9442 57.6407 66.2148 55.514C66.4855 53.3487 66.7368 51.2413 66.9688 49.192C67.2008 47.104 67.4328 45.0547 67.6648 43.044C67.8968 40.9947 68.1288 38.926 68.3608 36.838C69.7915 36.026 71.3188 35.62 72.9428 35.62C74.3735 35.62 75.6108 35.9293 76.6548 36.548C77.6988 37.1667 78.2208 38.2107 78.2208 39.68C78.2208 40.5307 78.1242 41.7487 77.9308 43.334C77.7762 44.8807 77.5442 46.6207 77.2348 48.554C76.9642 50.4873 76.6355 52.5173 76.2488 54.644C75.8622 56.7707 75.4562 58.8007 75.0308 60.734C74.6055 62.6673 74.1608 64.4267 73.6968 66.012C73.2715 67.5587 72.8655 68.7573 72.4788 69.608C71.8988 70.1493 70.9515 70.594 69.6368 70.942C68.3222 71.29 66.9688 71.464 65.5768 71.464C63.7595 71.464 62.2128 71.232 60.9368 70.768C59.6995 70.2653 58.9455 69.5693 58.6748 68.68C58.1722 67.1333 57.6308 65.2967 57.0508 63.17C56.4708 61.0433 55.8522 58.704 55.1948 56.152C54.6535 58.6653 54.0928 61.1207 53.5128 63.518C52.9328 65.9153 52.4108 67.9453 51.9468 69.608C51.3668 70.1493 50.4968 70.594 49.3368 70.942C48.1768 71.29 46.9008 71.464 45.5088 71.464C43.7688 71.464 42.1835 71.232 40.7528 70.768C39.3608 70.2653 38.4522 69.5693 38.0268 68.68C37.6788 67.984 37.2922 66.9593 36.8668 65.606C36.4802 64.214 36.0742 62.648 35.6488 60.908C35.2235 59.1293 34.7788 57.2153 34.3148 55.166C33.8895 53.1167 33.4835 51.0673 33.0968 49.018C32.7488 46.9687 32.4202 44.9773 32.1108 43.044C31.8015 41.072 31.5695 39.274 31.4148 37.65C31.9562 37.1473 32.7102 36.6833 33.6768 36.258C34.6435 35.8327 35.6875 35.62 36.8088 35.62C38.2782 35.62 39.4768 35.9487 40.4048 36.606C41.3715 37.2247 41.9708 38.288 42.2028 39.796C42.8215 43.74 43.3242 47.0267 43.7108 49.656C44.1362 52.2853 44.4648 54.4507 44.6968 56.152C44.9675 57.8147 45.1608 59.11 45.2768 60.038C45.3928 60.966 45.5088 61.7007 45.6248 62.242H45.9148C46.2628 60.6953 46.5915 59.2647 46.9008 57.95C47.2102 56.6353 47.5195 55.3207 47.8288 54.006C48.1768 52.6527 48.5248 51.222 48.8728 49.714C49.2208 48.1673 49.5882 46.408 49.9748 44.436Z" fill="#0099FF"/>
</g>
</g>
<defs>
<filter id="filter0_d_1_1138" x="16" y="18" width="74" height="74" filterUnits="userSpaceOnUse" color-interpolation-filters="sRGB">
<feFlood flood-opacity="0" result="BackgroundImageFix"/>
<feColorMatrix in="SourceAlpha" type="matrix" values="0 0 0 0 0 0 0 0 0 0 0 0 0 0 0 0 0 0 127 0" result="hardAlpha"/>
<feOffset dx="-2" dy="2"/>
<feComposite in2="hardAlpha" operator="out"/>
<feColorMatrix type="matrix" values="0 0 0 0 0 0 0 0 0 0 0 0 0 0 0 0 0 0 1 0"/>
<feBlend mode="normal" in2="BackgroundImageFix" result="effect1_dropShadow_1_1138"/>
<feBlend mode="normal" in="SourceGraphic" in2="effect1_dropShadow_1_1138" result="shape"/>
</filter>
<filter id="filter1_d_1_1138" x="27.4148" y="35.62" width="50.8062" height="39.844" filterUnits="userSpaceOnUse" color-interpolation-filters="sRGB">
<feFlood flood-opacity="0" result="BackgroundImageFix"/>
<feColorMatrix in="SourceAlpha" type="matrix" values="0 0 0 0 0 0 0 0 0 0 0 0 0 0 0 0 0 0 127 0" result="hardAlpha"/>
<feOffset dx="-4" dy="4"/>
<feComposite in2="hardAlpha" operator="out"/>
<feColorMatrix type="matrix" values="0 0 0 0 0 0 0 0 0 0 0 0 0 0 0 0 0 0 1 0"/>
<feBlend mode="normal" in2="BackgroundImageFix" result="effect1_dropShadow_1_1138"/>
<feBlend mode="normal" in="SourceGraphic" in2="effect1_dropShadow_1_1138" result="shape"/>
</filter>
<clipPath id="clip0_1_1138">
<rect width="108" height="108" fill="white"/>
</clipPath>
</defs>
</svg>
